<svg xmlns="http://www.w3.org/2000/svg" viewBox="0 0 1200 440" fill="none" role="img" aria-label="Tasks — a figure stands frozen blocking on a spinning task beside an hourglass">
  <defs>
    <filter id="rough" x="-6%" y="-6%" width="112%" height="112%">
      <feTurbulence type="fractalNoise" baseFrequency="0.014" numOctaves="2" seed="21" result="n"/>
      <feDisplacementMap in="SourceGraphic" in2="n" scale="6" xChannelSelector="R" yChannelSelector="G"/>
    </filter>
  </defs>
  <g filter="url(#rough)" stroke="#1b1a17" stroke-width="3.2" stroke-linecap="round" stroke-linejoin="round" fill="none">
    <circle cx="330" cy="150" r="34"/>
    <path d="M330 184 V300"/>
    <path d="M300 232 L388 250"/>
    <path d="M388 232 L300 250"/>
    <path d="M330 300 L310 385"/>
    <path d="M330 300 L350 385"/>
    <path d="M395 130 q12 -10 22 0 M395 130 q11 12 22 0" stroke-width="2.4" opacity="0.55"/>
    <path d="M512 172 L612 172 L562 250 Z"/>
    <path d="M512 330 L612 330 L562 252 Z"/>
    <path d="M500 172 L624 172 M500 330 L624 330"/>
    <path d="M548 226 L576 226 M556 240 L568 240" stroke-width="2.4" opacity="0.6"/>
    <circle cx="562" cy="300" r="3" fill="#1b1a17" opacity="0.6"/>
    <circle cx="554" cy="312" r="2.6" fill="#1b1a17" opacity="0.6"/>
    <circle cx="570" cy="314" r="2.6" fill="#1b1a17" opacity="0.6"/>
    <path d="M880 130 a86 86 0 1 1 -60 24"/>
    <path d="M820 154 L804 126 M820 154 L848 142"/>
    <path d="M880 230 m-26 0 a26 26 0 1 0 52 0 a26 26 0 1 0 -52 0" stroke-width="2.4" opacity="0.5"/>
    <path d="M868 230 L884 230" stroke-width="2.4" opacity="0.6"/>
  </g>
</svg>
