<svg xmlns="http://www.w3.org/2000/svg" viewBox="0 0 1200 440" fill="none" role="img" aria-label="Locking — two figures each wait on the other's padlock, a deadlock cycle">
  <defs>
    <filter id="rough" x="-6%" y="-6%" width="112%" height="112%">
      <feTurbulence type="fractalNoise" baseFrequency="0.014" numOctaves="2" seed="16" result="n"/>
      <feDisplacementMap in="SourceGraphic" in2="n" scale="6" xChannelSelector="R" yChannelSelector="G"/>
    </filter>
  </defs>
  <g filter="url(#rough)" stroke="#1b1a17" stroke-width="3.2" stroke-linecap="round" stroke-linejoin="round" fill="none">
    <circle cx="250" cy="160" r="32"/>
    <path d="M250 192 V292"/>
    <path d="M250 215 L300 245"/>
    <path d="M250 215 L208 248"/>
    <path d="M250 292 L214 372"/>
    <path d="M250 292 L286 372"/>
    <rect x="470" y="222" width="64" height="56" rx="8"/>
    <path d="M484 222 V202 a18 18 0 0 1 36 0 V222"/>
    <circle cx="502" cy="246" r="7" fill="#1b1a17"/>
    <rect x="666" y="222" width="64" height="56" rx="8"/>
    <path d="M680 222 V202 a18 18 0 0 1 36 0 V222"/>
    <circle cx="698" cy="246" r="7" fill="#1b1a17"/>
    <circle cx="950" cy="160" r="32"/>
    <path d="M950 192 V292"/>
    <path d="M950 215 L900 245"/>
    <path d="M950 215 L992 248"/>
    <path d="M950 292 L914 372"/>
    <path d="M950 292 L986 372"/>
    <path d="M300 200 Q500 110 660 210" stroke-width="2.6" opacity="0.6"/>
    <path d="M660 210 L644 200 M660 210 L652 226" stroke-width="2.6" opacity="0.6"/>
    <path d="M900 296 Q700 388 540 280" stroke-width="2.6" opacity="0.6"/>
    <path d="M540 280 L556 290 M540 280 L548 264" stroke-width="2.6" opacity="0.6"/>
  </g>
</svg>
