<svg xmlns="http://www.w3.org/2000/svg" viewBox="0 0 1200 440" fill="none" role="img" aria-label="Process — a figure yanks the power plug out of the wall, sparks fly">
  <defs>
    <filter id="rough" x="-6%" y="-6%" width="112%" height="112%">
      <feTurbulence type="fractalNoise" baseFrequency="0.014" numOctaves="2" seed="19" result="n"/>
      <feDisplacementMap in="SourceGraphic" in2="n" scale="6" xChannelSelector="R" yChannelSelector="G"/>
    </filter>
  </defs>
  <g filter="url(#rough)" stroke="#1b1a17" stroke-width="3.2" stroke-linecap="round" stroke-linejoin="round" fill="none">
    <rect x="900" y="200" width="84" height="110" rx="10"/>
    <path d="M918 232 L918 252 M966 232 L966 252"/>
    <rect x="772" y="232" width="64" height="56" rx="8"/>
    <path d="M836 246 L872 246 M836 274 L872 274"/>
    <path d="M888 230 L876 222 M886 246 L900 240 M888 290 L876 298 M886 274 L900 280 M894 260 L908 260" stroke-width="2.6" opacity="0.7"/>
    <path d="M772 268 Q620 340 430 280" stroke-width="2.8"/>
    <circle cx="300" cy="160" r="34"/>
    <path d="M300 194 L286 296"/>
    <path d="M300 220 L420 268"/>
    <path d="M300 224 L250 200"/>
    <path d="M286 296 L240 372"/>
    <path d="M286 296 L300 380"/>
    <path d="M420 268 L408 258 M420 268 L406 274" stroke-width="2.6"/>
  </g>
</svg>
