<svg xmlns="http://www.w3.org/2000/svg" viewBox="0 0 1200 440" fill="none" role="img" aria-label="DefectDB — a curator cataloguing software bugs pinned in a specimen case">
  <defs>
    <filter id="rough" x="-6%" y="-6%" width="112%" height="112%">
      <feTurbulence type="fractalNoise" baseFrequency="0.013" numOctaves="2" seed="19" result="n"/>
      <feDisplacementMap in="SourceGraphic" in2="n" scale="5.5" xChannelSelector="R" yChannelSelector="G"/>
    </filter>
  </defs>
  <g filter="url(#rough)" stroke="#1b1a17" stroke-width="3" stroke-linecap="round" stroke-linejoin="round" fill="none">
        <rect x="470" y="70" width="660" height="300" rx="16"/>
    <path d="M635 70 V370"/>
    <path d="M800 70 V370"/>
    <path d="M965 70 V370"/>
    <path d="M470 170 H1130"/>
    <path d="M470 270 H1130"/>
    <path d="M552.5 57.6 V91.4"/>
    <circle cx="552.5" cy="55.0" r="4.7" fill="#1b1a17"/>
    <ellipse cx="552.5" cy="120.0" rx="15.6" ry="26.0"/>
    <circle cx="552.5" cy="92.7" r="9.4"/>
    <path d="M552.5 105.7 V140.8"/>
    <path d="M540.8 109.6 L516.1 102.4"/>
    <path d="M564.2 109.6 L588.9 102.4"/>
    <path d="M540.8 121.3 L516.1 112.4"/>
    <path d="M564.2 121.3 L588.9 112.4"/>
    <path d="M540.8 133.0 L516.1 122.4"/>
    <path d="M564.2 133.0 L588.9 122.4"/>
    <path d="M547.8 84.9 q -10.4 -13.0 -2.6 -23.4"/>
    <path d="M557.2 84.9 q 10.4 -13.0 2.6 -23.4"/>
    <circle cx="549.1" cy="91.9" r="1.6" fill="#1b1a17"/>
    <circle cx="555.9" cy="91.9" r="1.6" fill="#1b1a17"/>
    <path d="M717.5 57.6 V91.4"/>
    <circle cx="717.5" cy="55.0" r="4.7" fill="#1b1a17"/>
    <ellipse cx="717.5" cy="120.0" rx="15.6" ry="26.0"/>
    <circle cx="717.5" cy="92.7" r="9.4"/>
    <path d="M717.5 105.7 V140.8"/>
    <path d="M705.8 109.6 L681.1 100.7"/>
    <path d="M729.2 109.6 L753.9 100.7"/>
    <path d="M705.8 121.3 L681.1 110.7"/>
    <path d="M729.2 121.3 L753.9 110.7"/>
    <path d="M705.8 133.0 L681.1 125.8"/>
    <path d="M729.2 133.0 L753.9 125.8"/>
    <path d="M712.8 84.9 q -10.4 -13.0 -2.6 -23.4"/>
    <path d="M722.2 84.9 q 10.4 -13.0 2.6 -23.4"/>
    <circle cx="714.1" cy="91.9" r="1.6" fill="#1b1a17"/>
    <circle cx="720.9" cy="91.9" r="1.6" fill="#1b1a17"/>
    <path d="M882.5 57.6 V91.4"/>
    <circle cx="882.5" cy="55.0" r="4.7" fill="#1b1a17"/>
    <ellipse cx="882.5" cy="120.0" rx="15.6" ry="26.0"/>
    <circle cx="882.5" cy="92.7" r="9.4"/>
    <path d="M882.5 105.7 V140.8"/>
    <path d="M870.8 109.6 L846.1 99.0"/>
    <path d="M894.2 109.6 L918.9 99.0"/>
    <path d="M870.8 121.3 L846.1 114.1"/>
    <path d="M894.2 121.3 L918.9 114.1"/>
    <path d="M870.8 133.0 L846.1 124.1"/>
    <path d="M894.2 133.0 L918.9 124.1"/>
    <path d="M877.8 84.9 q -10.4 -13.0 -2.6 -23.4"/>
    <path d="M887.2 84.9 q 10.4 -13.0 2.6 -23.4"/>
    <circle cx="879.1" cy="91.9" r="1.6" fill="#1b1a17"/>
    <circle cx="885.9" cy="91.9" r="1.6" fill="#1b1a17"/>
    <path d="M1047.5 57.6 V91.4"/>
    <circle cx="1047.5" cy="55.0" r="4.7" fill="#1b1a17"/>
    <ellipse cx="1047.5" cy="120.0" rx="15.6" ry="26.0"/>
    <circle cx="1047.5" cy="92.7" r="9.4"/>
    <path d="M1047.5 105.7 V140.8"/>
    <path d="M1035.8 109.6 L1011.1 102.4"/>
    <path d="M1059.2 109.6 L1083.9 102.4"/>
    <path d="M1035.8 121.3 L1011.1 112.4"/>
    <path d="M1059.2 121.3 L1083.9 112.4"/>
    <path d="M1035.8 133.0 L1011.1 122.4"/>
    <path d="M1059.2 133.0 L1083.9 122.4"/>
    <path d="M1042.8 84.9 q -10.4 -13.0 -2.6 -23.4"/>
    <path d="M1052.2 84.9 q 10.4 -13.0 2.6 -23.4"/>
    <circle cx="1044.1" cy="91.9" r="1.6" fill="#1b1a17"/>
    <circle cx="1050.9" cy="91.9" r="1.6" fill="#1b1a17"/>
    <path d="M552.5 157.6 V191.4"/>
    <circle cx="552.5" cy="155.0" r="4.7" fill="#1b1a17"/>
    <ellipse cx="552.5" cy="220.0" rx="15.6" ry="26.0"/>
    <circle cx="552.5" cy="192.7" r="9.4"/>
    <path d="M552.5 205.7 V240.8"/>
    <path d="M540.8 209.6 L516.1 200.7"/>
    <path d="M564.2 209.6 L588.9 200.7"/>
    <path d="M540.8 221.3 L516.1 210.7"/>
    <path d="M564.2 221.3 L588.9 210.7"/>
    <path d="M540.8 233.0 L516.1 225.8"/>
    <path d="M564.2 233.0 L588.9 225.8"/>
    <path d="M547.8 184.9 q -10.4 -13.0 -2.6 -23.4"/>
    <path d="M557.2 184.9 q 10.4 -13.0 2.6 -23.4"/>
    <circle cx="549.1" cy="191.9" r="1.6" fill="#1b1a17"/>
    <circle cx="555.9" cy="191.9" r="1.6" fill="#1b1a17"/>
    <path d="M717.5 157.6 V191.4"/>
    <circle cx="717.5" cy="155.0" r="4.7" fill="#1b1a17"/>
    <ellipse cx="717.5" cy="220.0" rx="15.6" ry="26.0"/>
    <circle cx="717.5" cy="192.7" r="9.4"/>
    <path d="M717.5 205.7 V240.8"/>
    <path d="M705.8 209.6 L681.1 199.0"/>
    <path d="M729.2 209.6 L753.9 199.0"/>
    <path d="M705.8 221.3 L681.1 214.2"/>
    <path d="M729.2 221.3 L753.9 214.2"/>
    <path d="M705.8 233.0 L681.1 224.1"/>
    <path d="M729.2 233.0 L753.9 224.1"/>
    <path d="M712.8 184.9 q -10.4 -13.0 -2.6 -23.4"/>
    <path d="M722.2 184.9 q 10.4 -13.0 2.6 -23.4"/>
    <circle cx="714.1" cy="191.9" r="1.6" fill="#1b1a17"/>
    <circle cx="720.9" cy="191.9" r="1.6" fill="#1b1a17"/>
    <rect x="848" y="198" width="68" height="44" rx="6"/>
    <path d="M862 216 H902 M862 228 H890"/>
    <path d="M1047.5 157.6 V191.4"/>
    <circle cx="1047.5" cy="155.0" r="4.7" fill="#1b1a17"/>
    <ellipse cx="1047.5" cy="220.0" rx="15.6" ry="26.0"/>
    <circle cx="1047.5" cy="192.7" r="9.4"/>
    <path d="M1047.5 205.7 V240.8"/>
    <path d="M1035.8 209.6 L1011.1 200.7"/>
    <path d="M1059.2 209.6 L1083.9 200.7"/>
    <path d="M1035.8 221.3 L1011.1 210.7"/>
    <path d="M1059.2 221.3 L1083.9 210.7"/>
    <path d="M1035.8 233.0 L1011.1 225.8"/>
    <path d="M1059.2 233.0 L1083.9 225.8"/>
    <path d="M1042.8 184.9 q -10.4 -13.0 -2.6 -23.4"/>
    <path d="M1052.2 184.9 q 10.4 -13.0 2.6 -23.4"/>
    <circle cx="1044.1" cy="191.9" r="1.6" fill="#1b1a17"/>
    <circle cx="1050.9" cy="191.9" r="1.6" fill="#1b1a17"/>
    <path d="M552.5 257.6 V291.4"/>
    <circle cx="552.5" cy="255.0" r="4.7" fill="#1b1a17"/>
    <ellipse cx="552.5" cy="320.0" rx="15.6" ry="26.0"/>
    <circle cx="552.5" cy="292.7" r="9.4"/>
    <path d="M552.5 305.7 V340.8"/>
    <path d="M540.8 309.6 L516.1 299.0"/>
    <path d="M564.2 309.6 L588.9 299.0"/>
    <path d="M540.8 321.3 L516.1 314.2"/>
    <path d="M564.2 321.3 L588.9 314.2"/>
    <path d="M540.8 333.0 L516.1 324.1"/>
    <path d="M564.2 333.0 L588.9 324.1"/>
    <path d="M547.8 284.9 q -10.4 -13.0 -2.6 -23.4"/>
    <path d="M557.2 284.9 q 10.4 -13.0 2.6 -23.4"/>
    <circle cx="549.1" cy="291.9" r="1.6" fill="#1b1a17"/>
    <circle cx="555.9" cy="291.9" r="1.6" fill="#1b1a17"/>
    <path d="M717.5 257.6 V291.4"/>
    <circle cx="717.5" cy="255.0" r="4.7" fill="#1b1a17"/>
    <ellipse cx="717.5" cy="320.0" rx="15.6" ry="26.0"/>
    <circle cx="717.5" cy="292.7" r="9.4"/>
    <path d="M717.5 305.7 V340.8"/>
    <path d="M705.8 309.6 L681.1 302.5"/>
    <path d="M729.2 309.6 L753.9 302.5"/>
    <path d="M705.8 321.3 L681.1 312.4"/>
    <path d="M729.2 321.3 L753.9 312.4"/>
    <path d="M705.8 333.0 L681.1 322.4"/>
    <path d="M729.2 333.0 L753.9 322.4"/>
    <path d="M712.8 284.9 q -10.4 -13.0 -2.6 -23.4"/>
    <path d="M722.2 284.9 q 10.4 -13.0 2.6 -23.4"/>
    <circle cx="714.1" cy="291.9" r="1.6" fill="#1b1a17"/>
    <circle cx="720.9" cy="291.9" r="1.6" fill="#1b1a17"/>
    <path d="M882.5 257.6 V291.4"/>
    <circle cx="882.5" cy="255.0" r="4.7" fill="#1b1a17"/>
    <ellipse cx="882.5" cy="320.0" rx="15.6" ry="26.0"/>
    <circle cx="882.5" cy="292.7" r="9.4"/>
    <path d="M882.5 305.7 V340.8"/>
    <path d="M870.8 309.6 L846.1 300.7"/>
    <path d="M894.2 309.6 L918.9 300.7"/>
    <path d="M870.8 321.3 L846.1 310.7"/>
    <path d="M894.2 321.3 L918.9 310.7"/>
    <path d="M870.8 333.0 L846.1 325.9"/>
    <path d="M894.2 333.0 L918.9 325.9"/>
    <path d="M877.8 284.9 q -10.4 -13.0 -2.6 -23.4"/>
    <path d="M887.2 284.9 q 10.4 -13.0 2.6 -23.4"/>
    <circle cx="879.1" cy="291.9" r="1.6" fill="#1b1a17"/>
    <circle cx="885.9" cy="291.9" r="1.6" fill="#1b1a17"/>
    <path d="M1047.5 257.6 V291.4"/>
    <circle cx="1047.5" cy="255.0" r="4.7" fill="#1b1a17"/>
    <ellipse cx="1047.5" cy="320.0" rx="15.6" ry="26.0"/>
    <circle cx="1047.5" cy="292.7" r="9.4"/>
    <path d="M1047.5 305.7 V340.8"/>
    <path d="M1035.8 309.6 L1011.1 299.0"/>
    <path d="M1059.2 309.6 L1083.9 299.0"/>
    <path d="M1035.8 321.3 L1011.1 314.2"/>
    <path d="M1059.2 321.3 L1083.9 314.2"/>
    <path d="M1035.8 333.0 L1011.1 324.1"/>
    <path d="M1059.2 333.0 L1083.9 324.1"/>
    <path d="M1042.8 284.9 q -10.4 -13.0 -2.6 -23.4"/>
    <path d="M1052.2 284.9 q 10.4 -13.0 2.6 -23.4"/>
    <circle cx="1044.1" cy="291.9" r="1.6" fill="#1b1a17"/>
    <circle cx="1050.9" cy="291.9" r="1.6" fill="#1b1a17"/>
        <circle cx="210" cy="150" r="34"/>
    <path d="M205 168 q5 8 12 0"/>
    <path d="M210 184 V300"/>
    <path d="M210 300 L172 384"/>
    <path d="M210 300 L250 384"/>
    <path d="M210 210 L160 250"/>
    <path d="M210 215 L300 180"/>
    <circle cx="350" cy="168" r="40"/>
    <path d="M350 168 m28 20 L430 250"/>
    <path d="M322 196 L300 180"/>
    <path d="M350 140.8 V157.7"/>
    <circle cx="350" cy="139.5" r="2.3" fill="#1b1a17"/>
    <ellipse cx="350" cy="172" rx="7.8" ry="13.0"/>
    <circle cx="350" cy="158.3" r="4.7"/>
    <path d="M350 164.8 V182.4"/>
    <path d="M344.1 166.8 L331.8 161.5"/>
    <path d="M355.9 166.8 L368.2 161.5"/>
    <path d="M344.1 172.7 L331.8 169.1"/>
    <path d="M355.9 172.7 L368.2 169.1"/>
    <path d="M344.1 178.5 L331.8 174.1"/>
    <path d="M355.9 178.5 L368.2 174.1"/>
    <path d="M347.7 154.4 q -5.2 -6.5 -1.3 -11.7"/>
    <path d="M352.3 154.4 q 5.2 -6.5 1.3 -11.7"/>
    <circle cx="348.3" cy="158.0" r="0.8" fill="#1b1a17"/>
    <circle cx="351.7" cy="158.0" r="0.8" fill="#1b1a17"/>
  </g>
</svg>
